# xmcd CD database file
#
# Track frame offsets:
#	150
#	17080
#	34508
#	50595
#	62623
#	75883
#	95656
#	109441
#	123969
#	133993
#	144746
#	161294
#	172946
#	189993
#	203308
#	214260
#
# Disc length: 3170 seconds
#
# Revision: 8
# Processed by: cddbd v1.5.1PL0 Copyright (c) Steve Scherf et al.
# Submitted via: CDex 1.51
#
DISCID=d30c6010
DTITLE=Johnny Cash - Unearthed Vol.2 - Trouble In Mind
DYEAR=1900
DGENRE=Country
TTITLE0=Pocahontas
TTITLE1=I'm A Drifter (Version 1)
TTITLE2=Trouble In Mind
TTITLE3=Down The Line
TTITLE4=I'm Movin' On
TTITLE5=As Long As The Grass Shall Grow
TTITLE6=Heart Of Gold
TTITLE7=The Running Kind (Feat. Tom Petty)
TTITLE8=Everybody's Trying To Be My Baby
TTITLE9=Brown Eyed Handsome Man (Feat. Carl Perkins)
TTITLE10="T" For Texas
TTITLE11=Devil's Right Hand
TTITLE12=I'm A Drifter (Version 2)
TTITLE13=Like A Soldier (Feat. Willie Nelson)
TTITLE14=Drive On (Alternate Lyrics)
TTITLE15=Bird On A Wire (Live With Orchestra)
EXTD=Limited Edition Deluxe Packaging With 5 Discs.\r\n06024 9861335 1
EXTT0=
EXTT1=
EXTT2=
EXTT3=
EXTT4=
EXTT5=
EXTT6=
EXTT7=
EXTT8=
EXTT9=
EXTT10=
EXTT11=
EXTT12=
EXTT13=
EXTT14=
EXTT15=
PLAYORDER=
